<svg xmlns="http://www.w3.org/2000/svg" width="800" height="150" viewBox="0 0 176.667 39.688">
  <defs>
    <style>
      @keyframes left{0%,to{transform:translateX(0)}50%{transform:translateX(-2px)}}@keyframes right{0%,to{transform:translateX(0)}50%{transform:translateX(2px)}}@keyframes up{0%,to{transform:translateY(0)}50%{transform:translateY(-2px)}}@keyframes down{0%,to{transform:translateY(0)}50%{transform:translateY(2px)}}.fill{fill:currentColor}
    </style>
  </defs>
  <g class="content-item fill">
    <path d="M16.14 10.583h31.75v18.521H16.14z"/>
    <path d="M29.369 17.198h5.291v-9.26h2.646l-5.291-3.97-5.292 3.97h2.646z" style="animation:up .3s .6s"/>
    <path d="M42.598 17.198v5.292h9.26v2.645l3.97-5.291-3.97-5.292v2.646z" style="animation:right .3s .3s"/>
    <path d="M34.66 22.49h-5.29v9.26h-2.646l5.292 3.969 5.291-3.969H34.66z" style="animation:down .3s .9s"/>
    <path d="M21.431 22.49v-5.292h-9.26v-2.646l-3.969 5.292 3.969 5.291V22.49z" style="animation:left .3s"/>
  </g>
  <g aria-label="LRUD Spatial" class="fill">
    <path d="M62.775 13.851h2.059v9.807h5.705v1.782h-7.764ZM72.16 25.441v-11.59h3.987q2.253 0 3.453.923 1.2.924 1.2 2.659 0 1.15-.584 1.977-.584.811-1.67 1.216.761 1.167 1.508 2.366.745 1.2 1.475 2.448h-2.367q-.631-1.135-1.297-2.237-.648-1.102-1.328-2.22-.194.016-.405.016h-1.945v4.441zm2.026-9.952v3.873h1.832q1.345 0 2.026-.47.68-.47.68-1.459 0-1.005-.68-1.475-.665-.47-2.01-.47zM87.72 25.684q-1.507 0-2.593-.584t-1.67-1.67q-.567-1.102-.567-2.625V13.85h2.059v7.18q0 1.379.713 2.124.729.745 2.059.745 1.345 0 2.058-.745.73-.746.73-2.123V13.85h2.057v6.954q0 1.523-.582 2.626-.584 1.085-1.67 1.669-1.07.584-2.593.584zM95.21 25.441v-11.59h4.228q1.817 0 3.097.68 1.296.681 1.977 1.978.697 1.28.697 3.112 0 1.848-.697 3.144-.68 1.297-1.977 1.994-1.281.68-3.112.68zm2.057-9.839v8.087h2.043q1.831 0 2.787-1.037.973-1.037.973-3.031 0-1.978-.956-2.999-.956-1.02-2.788-1.02zM113.54 25.684q-1.069 0-2.025-.292t-1.67-.827l.195-.892q.81.6 1.653.876.843.259 1.881.259 1.004 0 1.734-.307.746-.31 1.15-.876.405-.567.405-1.328 0-.536-.21-.925-.211-.405-.713-.745-.502-.357-1.394-.73-.876-.373-1.459-.697-.567-.34-.907-.68-.325-.357-.47-.746-.146-.405-.146-.908 0-.713.308-1.314.308-.598.875-1.036t1.329-.665q.778-.243 1.718-.243.908 0 1.734.259.827.244 1.524.746l-.194.876q-.697-.52-1.459-.763-.762-.242-1.702-.242-.956 0-1.67.291-.696.276-1.086.794-.389.519-.389 1.216 0 .357.097.632.114.276.374.535.275.244.76.519.503.259 1.266.6.81.356 1.345.696.55.325.875.68.324.358.47.796.146.421.146.972 0 .762-.324 1.41-.308.632-.891 1.102-.584.454-1.379.713-.794.244-1.75.244zM122.31 25.651q-.47 0-.924-.08-.438-.082-.827-.212l-.81 3.745h-.94l1.977-9.24q.179-.81.276-1.442.113-.648.162-1.215h.859q-.048.567-.162 1.231-.098.649-.26 1.394.455-.875 1.022-1.508.583-.647 1.232-.988.664-.34 1.345-.34.648 0 1.102.324.47.308.713.892.26.583.26 1.393 0 .99-.26 1.897-.258.891-.73 1.653-.453.762-1.085 1.329-.632.551-1.378.86-.745.307-1.573.307zm4.052-6.078q0-.859-.34-1.313-.325-.454-.956-.454-.973 0-1.865.843-.875.827-1.766 2.577l-.697 3.242q.664.405 1.572.405.664 0 1.264-.26.616-.275 1.119-.76.518-.503.89-1.168.374-.665.568-1.443.211-.794.211-1.67zM134.677 25.441h-.859q.048-.584.146-1.216.113-.648.276-1.41-.454.892-1.022 1.523-.567.632-1.215.973-.632.34-1.313.34-.616 0-1.086-.308-.454-.323-.697-.907-.243-.584-.243-1.394 0-.989.243-1.881.259-.908.713-1.67.47-.76 1.086-1.312.632-.567 1.378-.876.746-.308 1.556-.308.68 0 1.345.18.665.177 1.216.518l-1.086 5.09q-.162.794-.276 1.442-.113.648-.162 1.215zm-5.04-2.367q0 .794.29 1.28.31.487.957.487.956 0 1.816-.827.876-.843 1.766-2.577l.682-3.274q-.617-.39-1.508-.39-.665 0-1.265.276-.6.26-1.102.762-.502.486-.876 1.15-.356.666-.567 1.46-.194.778-.194 1.653zM141.874 24.208l-.211 1.005q-.745.438-1.686.438-.826 0-1.28-.405-.438-.405-.438-1.167 0-.146.017-.324.016-.178.08-.486l1.119-5.3h-1.653l.162-.762h1.653l.535-2.48.99-.243-.585 2.723h2.561l-.162.761h-2.56l-1.152 5.446q-.032.178-.048.325-.016.146-.016.275 0 .843.988.843.47 0 .876-.162.405-.162.81-.487zM146.153 15.132q-.259 0-.438-.162-.162-.163-.162-.422 0-.357.227-.567.227-.227.567-.227.276 0 .438.162.162.162.162.422 0 .356-.226.583-.227.21-.568.21zm-2.69 10.309 1.75-8.234h.94l-1.75 8.234zM153.382 25.441h-.859q.049-.584.146-1.216.114-.648.276-1.41-.455.892-1.022 1.523-.567.632-1.215.973-.632.34-1.313.34-.616 0-1.086-.308-.454-.323-.697-.907-.244-.584-.244-1.394 0-.989.244-1.881.259-.908.713-1.67.47-.76 1.086-1.312.632-.567 1.378-.876.745-.308 1.556-.308.68 0 1.345.18.665.177 1.215.518l-1.085 5.09q-.162.794-.276 1.442-.113.648-.162 1.215zm-5.041-2.367q0 .794.292 1.28.308.487.956.487.957 0 1.816-.827.875-.843 1.766-2.577l.681-3.274q-.616-.39-1.507-.39-.665 0-1.264.276-.6.26-1.103.762-.502.486-.875 1.15-.356.666-.568 1.46-.193.778-.193 1.653zM159.007 24.42l-.211.94q-.244.113-.503.161-.259.065-.55.065-.665 0-1.038-.324-.357-.34-.357-.94 0-.114.016-.259.017-.146.065-.39l2.205-10.309h.94l-2.237 10.456q-.049.243-.049.405 0 .291.179.454.178.145.486.145.551 0 1.054-.405z"/>
  </g>
</svg>

